<svg xmlns="http://www.w3.org/2000/svg" width="32" height="27.471" viewBox="0 0 32 27.471"><defs><style>.a{fill:#fff;}</style></defs><g transform="translate(0 -34.05)"><path class="a" d="M26.86,38.293H19.278a3.348,3.348,0,0,1-3.345-3.345.894.894,0,0,0-.9-.9H5.14A5.148,5.148,0,0,0,0,39.19v17.19a5.148,5.148,0,0,0,5.14,5.14H26.86A5.148,5.148,0,0,0,32,56.381V43.427A5.143,5.143,0,0,0,26.86,38.293ZM30.2,56.374a3.348,3.348,0,0,1-3.345,3.345H5.14A3.348,3.348,0,0,1,1.8,56.374V39.19A3.348,3.348,0,0,1,5.14,35.846h9.077a5.149,5.149,0,0,0,5.061,4.243H26.86A3.348,3.348,0,0,1,30.2,43.433V56.374Z"/></g></svg>