<svg xmlns="http://www.w3.org/2000/svg" width="18.931" height="21.285" viewBox="0 0 18.931 21.285"><defs><style>.a{fill:#fff;}</style></defs><g transform="translate(0 -3)"><g transform="translate(0 3)"><path class="a" d="M45.24,3.063H40.812V2.341A2.344,2.344,0,0,0,38.47,0h-4.21a2.344,2.344,0,0,0-2.341,2.341v.722H27.491a.591.591,0,0,0,0,1.182h1.068V18.126a3.164,3.164,0,0,0,3.16,3.16h9.295a3.164,3.164,0,0,0,3.16-3.16V4.245H45.24a.591.591,0,0,0,0-1.182ZM33.1,2.341a1.162,1.162,0,0,1,1.16-1.16h4.21a1.162,1.162,0,0,1,1.16,1.16v.722H33.1Zm9.89,15.784A1.982,1.982,0,0,1,41.013,20.1H31.718a1.982,1.982,0,0,1-1.978-1.978V4.245H43V18.126Z" transform="translate(-26.9)"/><path class="a" d="M230.291,157.023a.588.588,0,0,0,.591-.591V145.991a.591.591,0,1,0-1.182,0v10.437A.592.592,0,0,0,230.291,157.023Z" transform="translate(-220.825 -139.037)"/><path class="a" d="M142.191,170.523a.588.588,0,0,0,.591-.591v-9.142a.591.591,0,1,0-1.182,0v9.142A.591.591,0,0,0,142.191,170.523Z" transform="translate(-136.581 -153.19)"/><path class="a" d="M318.391,170.523a.588.588,0,0,0,.591-.591v-9.142a.591.591,0,1,0-1.181,0v9.142A.588.588,0,0,0,318.391,170.523Z" transform="translate(-305.07 -153.19)"/></g></g></svg>