<svg xmlns="http://www.w3.org/2000/svg" width="32" height="30.534" viewBox="0 0 32 30.534"><defs><style>.a{fill:#08f;}</style></defs><g transform="translate(0 -11.141)"><path class="a" d="M31.7,24.918,16.646,11.451a.423.423,0,0,0-.086-.066.891.891,0,0,0-1.2-.02L.3,24.832a.89.89,0,0,0,1.185,1.33l2.712-2.429v15.7a2.24,2.24,0,0,0,2.238,2.238h4.752a2.1,2.1,0,0,0,2.1-2.1V31.591a.323.323,0,0,1,.323-.323h4.8a.323.323,0,0,1,.323.323v7.984a2.1,2.1,0,0,0,2.1,2.1h4.752a2.544,2.544,0,0,0,2.238-2.8V23.818l2.712,2.429a.895.895,0,0,0,1.257-.072A.906.906,0,0,0,31.7,24.918Zm-5.673,4.39v9.55c0,.638-.316,1.027-.461,1.027H20.819a.323.323,0,0,1-.323-.323v-7.97a2.1,2.1,0,0,0-2.1-2.1H13.6a2.1,2.1,0,0,0-2.1,2.1v7.984a.323.323,0,0,1-.323.323H6.425a.462.462,0,0,1-.461-.461V22.14l9.991-8.925,10.077,9.01v7.082Z" transform="translate(0 0)"/></g></svg>