<svg xmlns="http://www.w3.org/2000/svg" width="32" height="32.007" viewBox="0 0 32 32.007"><defs><style>.a{fill:#fff;}</style></defs><g transform="translate(-0.05)"><g transform="translate(0.05)"><path class="a" d="M27.711,64.477H15.241V52.007a.9.9,0,0,0-.907-.907A14.284,14.284,0,1,0,28.618,65.384.912.912,0,0,0,27.711,64.477ZM14.334,77.854a12.47,12.47,0,0,1-.907-24.906V65.384a.9.9,0,0,0,.907.907H26.77A12.482,12.482,0,0,1,14.334,77.854Z" transform="translate(-0.05 -47.661)"/><path class="a" d="M265.366,14.261A14.306,14.306,0,0,0,251.059,0a.9.9,0,0,0-.909.909v13.4a.9.9,0,0,0,.909.909h13.4a.9.9,0,0,0,.909-.909Zm-13.4-.855V1.857a12.5,12.5,0,0,1,11.549,11.549H251.967Z" transform="translate(-233.366)"/></g></g></svg>