<svg xmlns="http://www.w3.org/2000/svg" width="32" height="32.94" viewBox="0 0 32 32.94"><defs><style>.a{fill:#fff;}</style></defs><g transform="translate(-6.85)"><g transform="translate(6.85)"><path class="a" d="M177.774,16.055V.926a.926.926,0,0,0-1.852,0V16.055a4.7,4.7,0,0,0,0,9.217v6.735a.926.926,0,1,0,1.852,0V25.272a4.7,4.7,0,0,0,0-9.217Zm-.926,7.455a2.846,2.846,0,1,1,2.846-2.846A2.848,2.848,0,0,1,176.848,23.51Z" transform="translate(-160.813)"/><path class="a" d="M12.474,8.291V.926a.926.926,0,0,0-1.852,0V8.291a4.7,4.7,0,0,0,0,9.217v14.5a.926.926,0,0,0,1.852,0V17.5a4.7,4.7,0,0,0,0-9.21Zm-.926,7.455A2.846,2.846,0,1,1,14.394,12.9,2.848,2.848,0,0,1,11.548,15.746Z" transform="translate(-6.85)"/><path class="a" d="M342.074,8.291V.926a.926.926,0,0,0-1.852,0V8.291a4.7,4.7,0,0,0,0,9.217v14.5a.926.926,0,0,0,1.852,0V17.5a4.7,4.7,0,0,0,0-9.21Zm-.926,7.455a2.846,2.846,0,1,1,2.846-2.846A2.848,2.848,0,0,1,341.148,15.746Z" transform="translate(-313.846)"/></g></g></svg>